<svg width="152" height="20" viewBox="0 0 152 20" fill="none" xmlns="http://www.w3.org/2000/svg">
<path d="M138.558 15.488H143.582H145.758H145.854C146.526 15.488 147.07 14.944 147.07 14.24V13.28C147.07 12.736 146.75 12.288 146.238 12.096C146.174 12.096 146.11 12.064 146.046 12.064H143.998H138.558H136.03H131.006H129.566C129.086 12.064 128.606 11.968 128.19 11.808C126.526 11.232 125.406 9.664 125.406 7.904V4.576C125.406 2.272 127.262 0.415998 129.566 0.415998H131.454H137.662H138.558H150.558C150.718 0.415998 150.878 0.543999 150.878 0.735998V4.16C150.878 4.352 150.718 4.512 150.558 4.512H138.558H131.39H131.294C130.622 4.512 130.046 5.056 130.046 5.728V6.72C130.046 7.232 130.398 7.712 130.878 7.872C131.006 7.936 131.134 7.968 131.294 7.968H131.358H133.118H138.558H139.486H146.142H147.582C148.03 7.968 148.51 8.032 148.958 8.192C150.622 8.768 151.742 10.368 151.742 12.128V15.456C151.742 17.728 149.854 19.616 147.582 19.616H145.918H139.486H138.558H126.59C126.398 19.616 126.27 19.456 126.27 19.264V15.84V15.808C126.27 15.648 126.398 15.488 126.59 15.488H138.558Z" fill="#531DAB"/>
<path d="M116.72 0.735998C116.72 0.543999 116.848 0.415998 117.04 0.415998H121.04C121.232 0.415998 121.392 0.543999 121.392 0.735998V13.792C121.392 16.992 118.768 19.616 115.568 19.616H99.824C96.592 19.616 94 16.992 94 13.792V0.735998C94 0.543999 94.128 0.415998 94.32 0.415998H98.32C98.512 0.415998 98.64 0.543999 98.64 0.735998V13.472C98.64 14.592 99.568 15.52 100.688 15.52H114.672C115.792 15.52 116.72 14.592 116.72 13.472V0.735998Z" fill="#531DAB"/>
<path d="M60.6562 4.16V0.735998C60.6562 0.543999 60.7842 0.415998 60.9762 0.415998H63.6642C65.1362 0.415998 66.3843 0.991999 67.3443 2.112L70.0963 5.408H70.1283C70.1283 5.44 70.1602 5.44 70.1602 5.472L71.6322 7.2C71.6642 7.232 71.6643 7.232 71.6963 7.232C72.1763 7.712 72.7843 7.968 73.4563 7.968H77.1683C77.8403 7.968 78.4803 7.712 78.9603 7.232C78.9603 7.232 78.9922 7.232 78.9922 7.2H79.0242L80.4642 5.472C80.4962 5.44 80.4963 5.44 80.5283 5.408L83.3122 2.112C84.2402 0.991999 85.5203 0.415998 86.9603 0.415998H89.6803C89.8403 0.415998 90.0003 0.543999 90.0003 0.735998V4.16C90.0003 4.352 89.8403 4.512 89.6803 4.512H88.5923C87.8563 4.512 87.1842 4.8 86.6722 5.344L82.7363 10.016L86.6722 14.656C87.1842 15.232 87.8563 15.52 88.5923 15.52H89.6803C89.8403 15.52 90.0003 15.648 90.0003 15.84V19.264C90.0003 19.456 89.8403 19.616 89.6803 19.616H86.9603C85.5203 19.616 84.2402 19.04 83.3122 17.888L80.5283 14.592C80.4963 14.592 80.4962 14.56 80.4642 14.528L79.0242 12.8H78.9922L78.9603 12.768C78.4803 12.288 77.8403 12.064 77.1683 12.064H73.4563C72.7843 12.064 72.1763 12.288 71.6963 12.768C71.6643 12.768 71.6642 12.8 71.6322 12.8L70.1602 14.528C70.1602 14.56 70.1283 14.592 70.1283 14.592H70.0963L67.3443 17.888C66.3843 19.04 65.1362 19.616 63.6642 19.616H60.9762C60.7842 19.616 60.6562 19.456 60.6562 19.264V15.84C60.6562 15.648 60.7842 15.52 60.9762 15.52H62.0322C62.7682 15.52 63.4403 15.232 63.9523 14.656L67.8883 10.016L63.9523 5.344C63.4403 4.8 62.7682 4.512 62.0322 4.512H60.9762C60.7842 4.512 60.6562 4.352 60.6562 4.16Z" fill="#531DAB"/>
<path d="M44.2638 7.936H38.3438C38.1518 7.936 38.0238 8.096 38.0238 8.288V11.712C38.0238 11.904 38.1518 12.032 38.3438 12.032H44.2638H50.3758H56.3278C56.4878 12.032 56.6478 11.904 56.6478 11.712V8.288C56.6478 8.096 56.4878 7.936 56.3278 7.936H50.3758H44.2638ZM34.9837 13.472C34.9837 14.592 35.9117 15.488 37.0317 15.488H48.7757H55.8478H56.3278C56.4878 15.488 56.6478 15.648 56.6478 15.84V19.264C56.6478 19.456 56.4878 19.584 56.3278 19.584H55.8478H48.7757H36.1678C32.9358 19.584 30.3438 16.992 30.3438 13.76V6.208C30.3438 3.008 32.9358 0.383999 36.1678 0.383999H48.7757H55.8478H56.3278C56.4878 0.383999 56.6478 0.543999 56.6478 0.735998V4.16C56.6478 4.352 56.4878 4.512 56.3278 4.512H55.8478H48.7757H37.0317C35.9117 4.512 34.9837 5.408 34.9837 6.528V13.472Z" fill="#531DAB"/>
<path d="M0 0.735998C0 0.543999 0.128 0.383999 0.32 0.383999H5.92C7.392 0.383999 8.64 0.991999 9.6 2.112L10.464 3.136C10.464 3.168 10.464 3.168 10.464 3.168L19.424 13.824L19.936 14.432C20.192 14.752 20.576 14.944 20.992 14.944H21.664V0.735998C21.664 0.543999 21.824 0.383999 21.984 0.383999H26.016C26.176 0.383999 26.336 0.543999 26.336 0.735998V19.264C26.336 19.456 26.176 19.616 26.016 19.616H20.416C18.944 19.616 17.664 19.008 16.736 17.888L15.872 16.864C15.872 16.832 15.84 16.832 15.84 16.832L6.88 6.176L6.368 5.568C6.112 5.248 5.76 5.056 5.344 5.056H4.64V19.264C4.64 19.456 4.512 19.616 4.32 19.616H0.32C0.128 19.616 0 19.456 0 19.264V0.735998Z" fill="#531DAB"/>
</svg>
