<svg xmlns="http://www.w3.org/2000/svg" width="152" height="20" viewBox="0 0 152 20" fill="none">
    <path
        d="M138.687 15.104H143.711H145.887H145.983C146.655 15.104 147.199 14.56 147.199 13.856V12.896C147.199 12.352 146.879 11.904 146.367 11.712C146.303 11.712 146.239 11.68 146.175 11.68H144.127H138.687H136.159H131.135H129.695C129.215 11.68 128.735 11.584 128.319 11.424C126.655 10.848 125.535 9.28001 125.535 7.52001V4.19201C125.535 1.88801 127.391 0.0320129 129.695 0.0320129H131.583H137.791H138.687H150.687C150.847 0.0320129 151.007 0.160013 151.007 0.352013V3.77601C151.007 3.96801 150.847 4.12801 150.687 4.12801H138.687H131.519H131.423C130.751 4.12801 130.175 4.67201 130.175 5.34401V6.33601C130.175 6.84801 130.527 7.32801 131.007 7.48801C131.135 7.55201 131.263 7.58401 131.423 7.58401H131.487H133.247H138.687H139.615H146.271H147.711C148.159 7.58401 148.639 7.64801 149.087 7.80801C150.751 8.38401 151.871 9.98401 151.871 11.744V15.072C151.871 17.344 149.983 19.232 147.711 19.232H146.047H139.615H138.687H126.719C126.527 19.232 126.399 19.072 126.399 18.88V15.456V15.424C126.399 15.264 126.527 15.104 126.719 15.104H138.687Z"
        fill="white" />
    <path
        d="M116.849 0.352013C116.849 0.160013 116.977 0.0320129 117.169 0.0320129H121.169C121.361 0.0320129 121.521 0.160013 121.521 0.352013V13.408C121.521 16.608 118.897 19.232 115.697 19.232H99.9529C96.7209 19.232 94.1289 16.608 94.1289 13.408V0.352013C94.1289 0.160013 94.2569 0.0320129 94.4489 0.0320129H98.4489C98.6409 0.0320129 98.7689 0.160013 98.7689 0.352013V13.088C98.7689 14.208 99.6969 15.136 100.817 15.136H114.801C115.921 15.136 116.849 14.208 116.849 13.088V0.352013Z"
        fill="white" />
    <path
        d="M60.7852 3.77601V0.352013C60.7852 0.160013 60.9132 0.0320129 61.1052 0.0320129H63.7932C65.2652 0.0320129 66.5132 0.608013 67.4732 1.72801L70.2252 5.02401H70.2572C70.2572 5.05601 70.2892 5.05601 70.2892 5.08801L71.7612 6.81601C71.7932 6.84801 71.7932 6.84801 71.8252 6.84801C72.3052 7.32801 72.9132 7.58401 73.5852 7.58401H77.2972C77.9692 7.58401 78.6092 7.32801 79.0892 6.84801C79.0892 6.84801 79.1212 6.84801 79.1212 6.81601H79.1532L80.5932 5.08801C80.6252 5.05601 80.6252 5.05601 80.6572 5.02401L83.4412 1.72801C84.3692 0.608013 85.6492 0.0320129 87.0892 0.0320129H89.8092C89.9692 0.0320129 90.1292 0.160013 90.1292 0.352013V3.77601C90.1292 3.96801 89.9692 4.12801 89.8092 4.12801H88.7212C87.9852 4.12801 87.3132 4.41601 86.8012 4.96001L82.8652 9.63201L86.8012 14.272C87.3132 14.848 87.9852 15.136 88.7212 15.136H89.8092C89.9692 15.136 90.1292 15.264 90.1292 15.456V18.88C90.1292 19.072 89.9692 19.232 89.8092 19.232H87.0892C85.6492 19.232 84.3692 18.656 83.4412 17.504L80.6572 14.208C80.6252 14.208 80.6252 14.176 80.5932 14.144L79.1532 12.416H79.1212L79.0892 12.384C78.6092 11.904 77.9692 11.68 77.2972 11.68H73.5852C72.9132 11.68 72.3052 11.904 71.8252 12.384C71.7932 12.384 71.7932 12.416 71.7612 12.416L70.2892 14.144C70.2892 14.176 70.2572 14.208 70.2572 14.208H70.2252L67.4732 17.504C66.5132 18.656 65.2652 19.232 63.7932 19.232H61.1052C60.9132 19.232 60.7852 19.072 60.7852 18.88V15.456C60.7852 15.264 60.9132 15.136 61.1052 15.136H62.1612C62.8972 15.136 63.5692 14.848 64.0812 14.272L68.0172 9.63201L64.0812 4.96001C63.5692 4.41601 62.8972 4.12801 62.1612 4.12801H61.1052C60.9132 4.12801 60.7852 3.96801 60.7852 3.77601Z"
        fill="white" />
    <path
        d="M44.3927 7.552H38.4727C38.2807 7.552 38.1527 7.712 38.1527 7.904V11.328C38.1527 11.52 38.2807 11.648 38.4727 11.648H44.3927H50.5047H56.4567C56.6167 11.648 56.7767 11.52 56.7767 11.328V7.904C56.7767 7.712 56.6167 7.552 56.4567 7.552H50.5047H44.3927ZM35.1127 13.088C35.1127 14.208 36.0407 15.104 37.1607 15.104H48.9047H55.9767H56.4567C56.6167 15.104 56.7767 15.264 56.7767 15.456V18.88C56.7767 19.072 56.6167 19.2 56.4567 19.2H55.9767H48.9047H36.2967C33.0647 19.2 30.4727 16.608 30.4727 13.376V5.824C30.4727 2.624 33.0647 0 36.2967 0H48.9047H55.9767H56.4567C56.6167 0 56.7767 0.16 56.7767 0.351999V3.776C56.7767 3.968 56.6167 4.128 56.4567 4.128H55.9767H48.9047H37.1607C36.0407 4.128 35.1127 5.024 35.1127 6.144V13.088Z"
        fill="white" />
    <path
        d="M0.128906 0.351999C0.128906 0.16 0.256906 0 0.448906 0H6.04891C7.52091 0 8.76891 0.608 9.72891 1.728L10.5929 2.752C10.5929 2.784 10.5929 2.784 10.5929 2.784L19.5529 13.44L20.0649 14.048C20.3209 14.368 20.7049 14.56 21.1209 14.56H21.7929V0.351999C21.7929 0.16 21.9529 0 22.1129 0H26.1449C26.3049 0 26.4649 0.16 26.4649 0.351999V18.88C26.4649 19.072 26.3049 19.232 26.1449 19.232H20.5449C19.0729 19.232 17.7929 18.624 16.8649 17.504L16.0009 16.48C16.0009 16.448 15.9689 16.448 15.9689 16.448L7.00891 5.792L6.49691 5.184C6.24091 4.864 5.88891 4.672 5.47291 4.672H4.76891V18.88C4.76891 19.072 4.64091 19.232 4.44891 19.232H0.448906C0.256906 19.232 0.128906 19.072 0.128906 18.88V0.351999Z"
        fill="white" />
</svg>